<?xml version="1.0" standalone="no"?>
<!DOCTYPE svg PUBLIC "-//W3C//DTD SVG 20010904//EN"
 "http://www.w3.org/TR/2001/REC-SVG-20010904/DTD/svg10.dtd">
<svg version="1.0" xmlns="http://www.w3.org/2000/svg"
 width="500.000000pt" height="500.000000pt" viewBox="0 0 500.000000 500.000000"
 preserveAspectRatio="xMidYMid meet">

<g transform="translate(0.000000,500.000000) scale(0.100000,-0.100000)"
fill="#000000" stroke="none">
<path d="M2380 4041 c0 -5 12 -11 28 -13 l27 -3 -2 -77 c-1 -61 1 -78 12 -78
11 0 15 19 17 72 3 72 3 73 33 78 55 9 31 25 -42 28 -43 2 -73 -1 -73 -7z"/>
<path d="M2169 4027 c-47 -36 -48 -111 -2 -147 35 -27 75 -25 112 6 64 54 27
154 -56 154 -21 0 -45 -6 -54 -13z m92 -25 c47 -39 21 -112 -40 -112 -55 0
-82 69 -41 110 25 25 51 25 81 2z"/>
<path d="M2617 4023 c-7 -13 -30 -163 -26 -167 2 -2 26 -7 53 -10 38 -6 47 -5
44 6 -3 7 -18 15 -34 18 -23 4 -29 10 -29 30 0 23 3 25 38 22 20 -2 37 1 37 6
0 12 -24 22 -51 22 -20 0 -24 16 -10 38 6 9 19 11 45 7 23 -5 36 -3 36 3 0 15
-8 19 -56 27 -23 3 -44 3 -47 -2z"/>
<path d="M2000 3991 c0 -5 4 -21 10 -36 8 -22 7 -27 -13 -34 -63 -24 -65 -23
-72 8 -7 31 -21 48 -32 37 -11 -11 41 -166 56 -166 13 0 11 22 -5 63 -4 12 5
18 33 26 52 15 51 15 58 -19 6 -29 21 -47 31 -37 10 10 -41 167 -53 167 -7 0
-13 -4 -13 -9z"/>
<path d="M2792 3907 c-12 -39 -22 -77 -22 -83 0 -6 18 -16 40 -23 49 -15 54
-15 58 -3 2 6 -13 15 -32 22 -42 13 -43 18 -16 88 23 61 24 72 8 72 -7 0 -23
-33 -36 -73z"/>
<path d="M1627 3843 c-39 -23 -56 -38 -49 -45 6 -6 17 -6 30 1 11 6 23 11 26
11 2 0 21 -27 41 -60 35 -57 55 -75 55 -47 0 6 -16 37 -35 67 -19 30 -35 57
-35 60 0 4 12 12 26 18 14 7 22 17 19 22 -9 14 -13 13 -78 -27z"/>
<path d="M1466 3729 c-30 -23 -33 -50 -10 -74 12 -12 27 -14 65 -9 46 6 49 5
49 -16 0 -15 -9 -25 -30 -33 -36 -14 -39 -27 -7 -27 29 0 67 34 67 60 0 36
-27 51 -81 44 -41 -6 -49 -4 -49 9 0 9 11 24 25 33 14 9 22 20 19 25 -8 14
-19 11 -48 -12z"/>
<path d="M1312 3587 l-32 -33 65 -63 66 -63 34 38 c18 22 30 43 25 48 -5 5
-19 -4 -33 -20 -21 -24 -27 -27 -41 -15 -20 17 -20 30 1 53 24 27 7 35 -20 10
-23 -22 -24 -22 -40 -4 -16 18 -16 20 3 37 20 18 27 45 12 45 -4 0 -23 -15
-40 -33z"/>
<path d="M1171 3411 c-12 -16 -21 -33 -21 -38 1 -15 139 -103 145 -92 4 5 -5
19 -19 30 -32 25 -25 39 19 39 18 0 40 3 49 6 31 12 16 24 -29 24 -37 0 -45 3
-45 18 0 49 -67 58 -99 13z m73 -14 c8 -12 7 -20 -4 -32 -14 -13 -18 -13 -38
1 -22 15 -22 17 -6 35 20 22 33 21 48 -4z"/>
<path d="M1850 3269 c0 -19 12 -19 491 -19 462 0 490 1 487 18 -3 16 -35 17
-491 19 -476 2 -487 1 -487 -18z"/>
<path d="M1036 3154 c-19 -18 -21 -65 -4 -82 19 -19 44 -14 77 14 48 40 87 11
41 -31 -14 -12 -17 -22 -10 -29 16 -16 50 23 50 59 0 59 -39 72 -89 29 -46
-38 -84 -16 -45 27 20 22 1 35 -20 13z"/>
<path d="M3580 2988 c0 -75 62 -319 92 -361 30 -42 33 -25 5 25 -23 39 -84
274 -74 285 3 2 12 -29 22 -69 10 -40 25 -91 35 -113 10 -22 20 -47 23 -55 4
-10 6 -11 6 -2 1 7 -8 34 -19 60 -22 55 -53 172 -46 179 9 9 74 -124 86 -177
7 -30 19 -67 26 -82 16 -30 19 -104 5 -112 -5 -3 -12 9 -15 27 -6 28 -8 30
-17 14 -8 -13 -6 -30 6 -61 9 -23 15 -60 13 -82 l-3 -39 -27 47 c-16 26 -28
54 -28 63 0 26 -36 88 -69 120 -27 25 -38 29 -86 28 -92 -2 -99 -21 -25 -76
27 -20 74 -49 105 -65 92 -47 144 -140 125 -227 -4 -22 -16 -65 -26 -95 l-19
-55 -5 127 c-4 103 -8 131 -22 145 -13 13 -21 14 -29 6 -13 -13 4 -75 27 -93
8 -7 14 -28 13 -49 l-1 -36 -12 40 c-6 23 -18 40 -26 40 -23 0 -23 -32 -1 -54
30 -30 41 -56 41 -98 0 -50 -11 -113 -19 -113 -4 0 -12 33 -19 73 -24 136 -34
169 -64 203 -29 33 -33 34 -104 34 -87 0 -88 -7 -9 -64 30 -21 56 -45 59 -52
3 -7 23 -22 45 -34 44 -22 52 -40 72 -160 l11 -65 -47 -98 c-27 -55 -58 -105
-71 -114 -13 -8 -37 -34 -54 -56 -16 -23 -30 -37 -30 -31 1 33 30 176 44 214
26 70 31 149 13 193 -31 74 -63 30 -73 -101 -6 -80 -5 -95 11 -112 14 -16 16
-29 11 -77 -13 -108 -34 -162 -84 -215 -25 -27 -60 -59 -76 -71 l-30 -22 24
40 c13 22 34 48 45 57 11 10 16 17 12 18 -5 0 6 25 23 55 32 55 34 85 6 85
-17 0 -26 -21 -26 -61 0 -34 -21 -79 -46 -100 -15 -13 -16 -12 -9 11 4 14 11
29 16 35 11 11 12 45 1 45 -21 0 -32 -29 -32 -81 0 -47 -5 -63 -26 -89 -15
-17 -28 -29 -30 -28 -6 7 38 162 57 199 21 43 25 105 8 143 -11 24 -94 76
-122 76 -12 0 -6 -27 29 -127 l43 -128 -12 -71 c-7 -39 -20 -82 -29 -96 -19
-29 -114 -78 -197 -102 -74 -22 -75 -20 -10 14 67 35 141 116 163 180 8 24 13
46 11 48 -2 3 -37 -29 -78 -70 -53 -54 -98 -87 -163 -122 -49 -26 -112 -61
-140 -77 -30 -17 -73 -31 -100 -34 -49 -5 -49 -5 -12 6 28 8 52 28 93 79 30
37 55 70 55 74 0 12 -38 6 -49 -8 -19 -22 -140 -77 -216 -97 -81 -22 -179 -23
-250 -4 -49 14 -46 14 75 12 115 -2 125 -1 128 17 3 16 0 18 -25 11 -15 -4
-48 -9 -73 -11 -42 -3 -41 -3 15 11 33 8 83 24 110 36 28 12 65 27 83 35 42
18 45 54 5 54 -34 0 -46 -8 -62 -37 -18 -35 -151 -93 -151 -66 0 10 40 51 90
93 26 22 32 32 24 40 -17 17 -52 3 -60 -23 -10 -33 -73 -106 -106 -123 -39
-20 -37 1 4 43 22 23 29 36 22 43 -17 17 -45 0 -51 -31 -7 -37 -46 -79 -74
-79 -11 0 -36 7 -55 16 -41 20 -59 9 -26 -15 13 -9 63 -56 112 -104 67 -67 97
-106 122 -158 34 -71 54 -90 65 -63 4 10 -5 27 -26 46 -18 17 -30 33 -26 36 3
3 22 -11 43 -31 41 -40 72 -48 72 -18 0 24 -19 39 -58 47 -30 6 -122 77 -122
94 0 10 121 -33 151 -54 30 -21 99 -22 99 -1 0 21 -32 35 -82 35 -24 0 -61 5
-83 12 l-40 12 34 5 c19 3 36 11 38 17 7 20 -27 24 -58 8 -24 -12 -37 -13 -62
-5 -32 11 -112 79 -103 88 6 6 260 -63 311 -85 36 -16 127 -71 232 -142 23
-16 43 -26 46 -24 2 2 -9 31 -26 63 -27 55 -35 62 -96 89 -60 27 -63 30 -34
31 17 1 68 -12 113 -29 44 -16 109 -36 143 -44 34 -8 90 -28 124 -45 105 -53
112 -36 21 50 -65 61 -97 75 -193 88 l-50 7 57 17 c32 10 80 22 107 27 64 12
381 5 449 -10 29 -7 56 -9 60 -5 14 13 -18 41 -74 64 -50 21 -74 24 -153 23
-52 -1 -104 -4 -115 -7 -12 -3 6 9 40 27 34 18 84 47 113 64 29 18 80 36 119
44 63 11 71 11 107 -8 22 -11 69 -27 104 -36 36 -9 70 -21 78 -27 10 -9 13 -4
13 25 0 25 -8 45 -29 68 -28 32 -32 33 -103 32 -51 0 -87 -7 -118 -21 -51 -23
-131 -40 -115 -25 6 6 32 29 60 51 46 38 54 41 110 41 39 0 78 -8 113 -22 48
-20 54 -21 68 -6 15 15 15 17 -2 26 -11 5 -55 10 -98 11 -44 0 -81 3 -84 6 -3
2 8 9 24 15 20 8 54 9 112 2 69 -8 89 -14 111 -36 33 -32 81 -36 81 -6 0 12
-8 21 -22 24 -13 3 -48 10 -77 17 -30 7 -68 12 -83 11 -16 0 -26 3 -23 9 11
17 120 43 174 41 54 -2 81 9 81 34 0 19 -54 18 -83 0 -24 -16 -117 -40 -125
-32 -2 3 12 15 32 27 36 21 63 55 52 66 -14 14 -57 -10 -70 -40 -20 -48 -57
-77 -122 -94 -32 -8 -71 -21 -86 -29 -47 -24 -52 -16 -15 25 20 22 43 51 53
66 23 35 127 105 156 105 46 0 186 121 188 163 0 11 -54 9 -87 -4 -36 -13
-123 -98 -123 -120 0 -17 -53 -69 -71 -69 -5 0 -3 10 5 23 8 12 24 59 35 104
11 45 28 99 38 120 29 60 140 190 167 197 35 9 89 81 115 154 13 35 20 66 17
69 -8 8 -84 -25 -122 -54 -35 -25 -64 -94 -64 -150 0 -32 -23 -73 -72 -127
-21 -24 -22 -16 -4 44 7 25 16 95 20 155 4 61 11 133 17 160 9 41 8 58 -6 95
-9 25 -23 68 -30 95 -20 77 -33 105 -82 178 -48 71 -63 81 -63 45z m10 -344
c30 -26 60 -72 60 -94 0 -6 -14 3 -32 20 -17 17 -55 45 -85 62 -29 16 -53 32
-53 34 0 2 18 4 39 4 28 0 49 -8 71 -26z m13 -72 c32 -28 10 -23 -50 12 -82
48 -106 80 -28 37 33 -18 68 -40 78 -49z m353 -65 c6 -16 -21 -83 -48 -117
-19 -24 -54 -49 -71 -50 -14 0 25 64 69 114 24 28 41 52 38 55 -3 3 -10 -3
-16 -13 -6 -10 -28 -37 -49 -60 -22 -22 -39 -45 -39 -51 0 -5 -8 -19 -16 -30
-15 -19 -15 -19 -8 10 15 70 42 114 81 134 45 24 52 25 59 8z m-306 -115 c0
-7 -4 -10 -10 -7 -5 3 -10 16 -10 28 0 18 2 19 10 7 5 -8 10 -21 10 -28z
m-112 -36 c11 -14 28 -39 37 -55 13 -27 13 -30 0 -25 -8 4 -15 10 -15 14 0 5
-8 11 -19 15 -10 3 -30 16 -44 28 -13 12 -33 27 -43 34 -17 10 -14 12 22 12
31 1 45 -5 62 -23z m-47 -29 c72 -54 84 -66 76 -73 -4 -4 -24 8 -45 27 -20 20
-50 46 -67 59 -16 13 -22 20 -11 16 10 -3 31 -16 47 -29z m-45 -229 l-6 -33
14 35 14 35 11 -30 c9 -22 9 -45 0 -97 -13 -72 -33 -103 -50 -77 -12 19 3 199
18 199 2 0 2 -15 -1 -32z m384 -42 c-43 -41 -125 -106 -134 -106 -16 0 76 87
110 105 36 19 42 19 24 1z m0 -42 c-46 -47 -107 -90 -116 -81 -6 6 137 127
150 127 6 0 -10 -21 -34 -46z m-613 -134 c45 -27 61 -82 39 -134 -8 -20 -20
-35 -25 -32 -11 7 -53 129 -57 164 -3 27 2 27 43 2z m547 -25 c-4 -8 -11 -15
-16 -15 -6 0 -5 6 2 15 7 8 14 15 16 15 2 0 1 -7 -2 -15z m126 -44 c0 -11 -39
-25 -47 -18 -3 3 -2 10 2 16 8 13 45 15 45 2z m-534 -77 c-4 -9 -9 -15 -11
-12 -3 3 -3 13 1 22 4 9 9 15 11 12 3 -3 3 -13 -1 -22z m474 -44 c8 -5 11 -12
7 -16 -4 -4 -15 0 -24 9 -18 18 -8 23 17 7z m-175 -64 c28 -12 55 -41 55 -60
0 -3 -16 6 -36 19 -22 15 -50 25 -68 24 -29 -1 -29 -2 7 -9 21 -4 48 -17 60
-30 l22 -22 -35 7 c-63 12 -122 37 -108 46 10 7 9 9 -4 9 -34 0 -18 19 20 23
20 2 41 4 45 5 4 1 23 -4 42 -12z m-542 -41 c-3 -9 -8 -14 -10 -11 -3 3 -2 9
2 15 9 16 15 13 8 -4z m-633 -20 c-7 -8 -17 -15 -22 -15 -6 0 -5 7 2 15 7 8
17 15 22 15 6 0 5 -7 -2 -15z m130 -25 c0 -11 -33 -30 -52 -30 -7 1 -3 9 11
20 25 22 41 26 41 10z m447 -21 c-7 -18 -26 -42 -43 -55 -34 -26 -174 -87
-182 -79 -3 3 0 5 7 5 7 0 10 4 6 9 -3 6 30 28 73 50 43 23 93 54 112 71 19
16 36 29 37 30 1 0 -4 -14 -10 -31z m-381 -95 c-55 -29 -131 -54 -161 -53 -11
0 14 10 55 23 41 12 89 30 105 39 17 9 35 16 40 16 6 0 -12 -11 -39 -25z m709
10 c27 -13 27 -14 5 -10 -14 3 -45 7 -70 10 l-45 6 38 -10 c20 -6 54 -14 75
-18 40 -10 -86 -7 -208 5 l-65 6 35 13 c49 18 197 17 235 -2z m-689 -33 c-41
-43 -174 -68 -216 -41 -11 7 -6 8 17 4 33 -7 150 26 187 52 35 24 41 16 12
-15z m219 -86 c70 -15 140 -57 140 -86 0 -8 9 -13 19 -12 12 1 15 -2 9 -8 -7
-7 -23 -3 -45 11 -19 11 -73 30 -119 41 -100 25 -128 38 -83 39 40 0 127 -26
167 -51 18 -10 37 -19 42 -19 6 0 -8 11 -30 24 -53 32 -149 59 -190 54 -19 -2
-32 -1 -29 3 2 4 -4 10 -13 12 -46 12 70 5 132 -8z m-241 -32 c33 -14 71 -36
84 -46 23 -22 31 -54 10 -40 -7 4 -18 8 -23 9 -20 3 -116 66 -110 72 3 3 -5
12 -17 19 -40 22 -8 14 56 -14z m-118 -58 c19 -14 19 -14 -2 -15 -11 0 -29 7
-40 15 -19 14 -19 14 2 15 11 0 29 -7 40 -15z m-66 -75 c8 -5 11 -12 7 -16 -4
-4 -15 0 -24 9 -18 18 -8 23 17 7z"/>
<path d="M3453 2000 c0 -36 2 -50 4 -32 2 17 2 47 0 65 -2 17 -4 3 -4 -33z"/>
<path d="M3194 1865 c8 -8 20 -41 26 -73 15 -76 21 -88 14 -27 -7 59 -28 115
-44 115 -7 0 -5 -6 4 -15z"/>
<path d="M3023 1499 c-6 -6 -48 -30 -94 -54 -46 -25 -81 -45 -76 -45 16 0 187
91 187 100 0 13 -3 13 -17 -1z"/>
<path d="M3198 1423 c12 -2 32 -2 45 0 12 2 2 4 -23 4 -25 0 -35 -2 -22 -4z"/>
<path d="M2641 1276 c10 -9 89 -46 89 -41 0 5 -75 45 -86 45 -4 0 -5 -2 -3 -4z"/>
<path d="M970 2982 c0 -5 6 -16 13 -27 10 -13 16 -15 21 -6 4 6 2 18 -4 26
-13 16 -30 20 -30 7z"/>
<path d="M1540 2941 c0 -5 14 -12 30 -16 l30 -7 0 -244 0 -244 -30 0 c-16 0
-30 -4 -30 -10 0 -6 61 -10 163 -10 150 0 166 2 213 24 89 41 134 121 134 239
0 98 -21 156 -75 206 -62 57 -118 71 -292 71 -80 0 -143 -4 -143 -9z m337 -35
c69 -35 99 -123 90 -263 -5 -93 -31 -156 -75 -188 -21 -16 -47 -21 -119 -23
l-93 -4 0 252 0 253 83 -5 c47 -3 97 -13 114 -22z"/>
<path d="M2116 2942 c-4 -7 8 -14 29 -18 l35 -6 -2 -242 -3 -241 -25 -3 c-14
-2 -29 -8 -35 -13 -5 -5 34 -9 100 -9 66 0 105 4 100 9 -6 5 -21 11 -35 13
l-25 3 0 115 0 115 48 -1 c67 -1 94 -29 107 -114 15 -97 19 -109 40 -130 24
-24 70 -26 110 -5 41 21 38 37 -4 29 -33 -6 -35 -5 -45 33 -6 21 -11 47 -11
58 -1 46 -37 101 -81 123 -34 17 -39 22 -21 22 36 0 80 27 97 60 20 38 19 105
-1 140 -30 50 -74 63 -230 68 -93 3 -144 1 -148 -6z m268 -37 c43 -29 59 -110
32 -163 -20 -39 -54 -54 -112 -50 l-49 3 -3 104 c-1 58 0 111 3 119 7 19 93
10 129 -13z"/>
<path d="M2600 2940 c0 -6 14 -13 30 -17 l30 -6 -2 -241 -3 -241 -27 -3 c-16
-2 -28 -8 -28 -13 0 -5 45 -9 100 -9 55 0 100 4 100 9 0 5 -12 11 -27 13 l-28
3 -3 123 -3 122 126 0 126 0 -3 -122 -3 -123 -27 -3 c-16 -2 -28 -8 -28 -13 0
-5 45 -9 100 -9 55 0 100 4 100 9 0 5 -12 11 -27 13 l-28 3 -3 241 -2 241 30
6 c16 4 30 11 30 17 0 6 -38 10 -100 10 -97 0 -130 -12 -70 -25 l30 -7 0 -109
0 -110 -125 2 -125 1 0 108 0 108 30 6 c17 3 30 10 30 16 0 6 -38 10 -100 10
-62 0 -100 -4 -100 -10z"/>
<path d="M940 2860 c0 -5 25 -24 55 -41 69 -39 73 -45 33 -53 -69 -14 -108
-27 -108 -37 0 -7 13 -9 38 -4 66 12 152 38 152 46 0 9 -146 99 -160 99 -6 0
-10 -4 -10 -10z"/>
<path d="M3691 2675 c1 -19 18 -51 18 -35 0 8 -4 22 -9 30 -5 8 -9 11 -9 5z"/>
<path d="M1070 2600 c0 -36 -3 -40 -24 -40 -24 0 -36 16 -36 51 0 11 -4 17
-10 14 -5 -3 -10 -19 -10 -36 0 -24 -4 -29 -25 -29 -22 0 -25 4 -25 35 0 25
-4 35 -16 35 -12 0 -14 -10 -12 -47 l3 -48 88 -3 87 -3 0 56 c0 30 -4 55 -10
55 -5 0 -10 -18 -10 -40z"/>
<path d="M960 2420 c-15 -15 -20 -33 -20 -73 0 -30 2 -56 5 -59 5 -5 166 20
173 27 10 10 -14 82 -34 102 -30 30 -95 32 -124 3z m105 -25 c40 -40 33 -62
-22 -69 -27 -4 -56 -9 -65 -12 -27 -8 -24 53 4 83 28 30 53 29 83 -2z"/>
<path d="M1850 1963 c0 -17 29 -18 487 -15 422 2 488 4 491 17 3 13 -59 15
-487 15 -461 0 -491 -1 -491 -17z"/>
<path d="M3341 1664 c-10 -22 -9 -25 5 -22 9 2 23 13 32 26 13 20 13 22 -5 22
-12 0 -25 -11 -32 -26z"/>
</g>
</svg>
