<?xml version="1.0" encoding="UTF-8" standalone="no"?>
<!-- Generator: Adobe Illustrator 24.3.0, SVG Export Plug-In . SVG Version: 6.00 Build 0)  -->

<svg
   xmlns:dc="http://purl.org/dc/elements/1.1/"
   xmlns:cc="http://creativecommons.org/ns#"
   xmlns:rdf="http://www.w3.org/1999/02/22-rdf-syntax-ns#"
   xmlns:svg="http://www.w3.org/2000/svg"
   xmlns="http://www.w3.org/2000/svg"
   xmlns:sodipodi="http://sodipodi.sourceforge.net/DTD/sodipodi-0.dtd"
   xmlns:inkscape="http://www.inkscape.org/namespaces/inkscape"
   version="1.1"
   id="Layer_1"
   x="0px"
   y="0px"
   viewBox="0 0 194.10001 10"
   xml:space="preserve"
   inkscape:version="0.91 r13725"
   sodipodi:docname="separator.svg"
   width="194.10001"
   height="10"><metadata
     id="metadata15"><rdf:RDF><cc:Work
         rdf:about=""><dc:format>image/svg+xml</dc:format><dc:type
           rdf:resource="http://purl.org/dc/dcmitype/StillImage" /><dc:title></dc:title></cc:Work></rdf:RDF></metadata><defs
     id="defs13" /><sodipodi:namedview
     pagecolor="#ffffff"
     bordercolor="#666666"
     borderopacity="1"
     objecttolerance="10"
     gridtolerance="10"
     guidetolerance="10"
     inkscape:pageopacity="0"
     inkscape:pageshadow="2"
     inkscape:window-width="1368"
     inkscape:window-height="849"
     id="namedview11"
     showgrid="false"
     fit-margin-top="0"
     fit-margin-left="0"
     fit-margin-right="0"
     fit-margin-bottom="0"
     inkscape:zoom="1.149886"
     inkscape:cx="109.17579"
     inkscape:cy="161.57484"
     inkscape:window-x="-8"
     inkscape:window-y="-8"
     inkscape:window-maximized="1"
     inkscape:current-layer="Layer_1" /><style
     type="text/css"
     id="style3">
	.st0{fill:#1A3740;}
</style><g
     id="g5"
     transform="translate(-566,-575.5)"><path
       class="st0"
       d="m 666.3,582.7 c -0.7,1.1 -1.9,1.8 -3.3,1.8 -1.4,0 -2.7,-0.7 -3.4,-1.8 -0.2,0.3 -0.5,0.5 -0.8,0.6 0.9,1.3 2.4,2.2 4.2,2.2 1.7,0 3.2,-0.8 4.1,-2.2 -0.3,-0.1 -0.6,-0.3 -0.8,-0.6 z"
       id="path7"
       inkscape:connector-curvature="0"
       style="fill:#1a3740" /><path
       class="st0"
       d="m 672,580 c -0.2,-1.6 -1.6,-2.8 -3.3,-2.8 -0.6,0 -1.2,0.2 -1.7,0.5 -0.9,-1.3 -2.4,-2.2 -4.1,-2.2 -1.7,0 -3.2,0.9 -4.2,2.2 -0.5,-0.3 -1.1,-0.5 -1.7,-0.5 -1.7,0 -3,1.2 -3.2,2.8 l -87.8,0 0,1 87.9,0 c 0.2,1.6 1.6,2.8 3.2,2.8 0.6,0 1.2,-0.2 1.7,-0.5 0.3,-0.2 0.6,-0.4 0.8,-0.6 -0.2,-0.3 -0.4,-0.7 -0.5,-1.1 -0.1,-0.4 -0.2,-0.7 -0.2,-1.1 0,-0.4 0,-0.7 0.2,-1.1 0.1,-0.4 0.3,-0.7 0.5,-1.1 0.7,-1.1 2,-1.8 3.4,-1.8 1.4,0 2.6,0.7 3.3,1.8 0.2,0.3 0.4,0.6 0.5,1 0.1,0.4 0.2,0.8 0.2,1.2 0,0.4 -0.1,0.8 -0.2,1.2 -0.1,0.4 -0.3,0.7 -0.5,1 0.2,0.2 0.5,0.5 0.8,0.6 0.5,0.3 1,0.5 1.7,0.5 1.6,0 3,-1.2 3.3,-2.8 l 88,0 0,-1 -88.1,0 z m -13.6,2.4 c -0.4,0.2 -0.8,0.4 -1.2,0.4 -1.3,0 -2.3,-1 -2.3,-2.3 0,-1.3 1,-2.3 2.3,-2.3 0.5,0 0.9,0.1 1.2,0.4 -0.2,0.6 -0.4,1.2 -0.4,1.9 0,0.7 0.1,1.3 0.4,1.9 z m 10.4,0.4 c -0.4,0 -0.8,-0.1 -1.2,-0.3 0.3,-0.6 0.4,-1.3 0.4,-2 0,-0.7 -0.1,-1.4 -0.4,-2 0.3,-0.2 0.7,-0.3 1.2,-0.3 1.3,0 2.3,1 2.3,2.3 0,1.3 -1.1,2.3 -2.3,2.3 z"
       id="path9"
       inkscape:connector-curvature="0"
       style="fill:#1a3740" /></g></svg>